<svg xmlns="http://www.w3.org/2000/svg" xmlns:xlink="http://www.w3.org/1999/xlink" width="500" zoomAndPan="magnify" viewBox="0 0 375 374.999991" height="500" preserveAspectRatio="xMidYMid meet" version="1.0"><defs><clipPath id="6285f133d2"><path d="M 181 33 L 347.582031 33 L 347.582031 322 L 181 322 Z M 181 33 " clip-rule="nonzero"/></clipPath><clipPath id="5b24ff4e35"><path d="M 27.332031 88 L 193 88 L 193 337.726562 L 27.332031 337.726562 Z M 27.332031 88 " clip-rule="nonzero"/></clipPath></defs><g clip-path="url(#6285f133d2)"><path fill="#000000" d="M 340.914062 251.828125 C 344.964844 253.578125 347.589844 257.566406 347.589844 261.980469 L 347.589844 287.371094 C 347.589844 291.492188 344.867188 293.398438 341.144531 293.398438 C 332.980469 293.398438 323.882812 287.449219 321.289062 277.886719 L 319.980469 273.0625 L 271.703125 253.730469 C 267.511719 252.054688 264.761719 247.988281 264.761719 243.464844 L 264.761719 204.964844 C 264.761719 201.925781 262.273438 199.433594 259.238281 199.433594 C 256.199219 199.433594 253.710938 201.925781 253.710938 204.964844 L 253.710938 243.5 C 253.710938 252.542969 259.214844 260.671875 267.597656 264.027344 L 301.988281 277.800781 C 306.179688 279.476562 308.929688 283.542969 308.929688 288.066406 L 308.929688 316.621094 C 308.929688 319.679688 306.59375 321.042969 303.292969 321.042969 C 295.929688 321.042969 285.285156 314.800781 282.554688 303.878906 L 281.320312 298.933594 L 240.769531 282.109375 C 228.550781 277.039062 220.585938 265.101562 220.585938 251.859375 L 220.585938 127.59375 L 183.433594 53.195312 C 182.414062 51.222656 181.933594 49.109375 181.933594 47.023438 C 181.933594 39.066406 188.578125 33.636719 195.128906 33.636719 C 199.878906 33.636719 204.414062 35.980469 206.929688 40.347656 L 229.578125 81.289062 C 236.019531 92.925781 248.1875 99.957031 259.230469 99.957031 C 270.824219 99.957031 282.699219 95.714844 290.445312 85.097656 L 320.546875 43.839844 C 322.894531 40.785156 326.65625 39.160156 330.035156 39.160156 C 336.105469 39.160156 342.050781 44.027344 342.050781 50.667969 C 342.050781 53.183594 341.472656 55.75 339.941406 57.980469 L 292.359375 130.6875 L 292.359375 230.894531 L 340.898438 251.835938 Z M 340.914062 251.828125 " fill-opacity="1" fill-rule="nonzero"/></g><g clip-path="url(#5b24ff4e35)"><path fill="#000000" d="M 148.8125 171.804688 C 148.8125 171.804688 180.1875 123.621094 190.875 107.71875 C 192.332031 105.550781 192.988281 103.097656 192.988281 100.671875 C 192.988281 94.308594 187.714844 88.898438 180.777344 88.898438 C 177.597656 88.898438 173.773438 90.558594 171.488281 93.578125 C 166.433594 100.246094 155.800781 115.507812 147.492188 127.535156 C 139.808594 138.664062 126.730469 144.167969 115.691406 144.167969 C 103.601562 144.167969 91.527344 138.488281 83.917969 127.261719 C 75.78125 115.265625 64.851562 100.164062 59.898438 93.566406 C 57.496094 90.371094 53.574219 88.890625 49.996094 88.890625 C 44.546875 88.890625 38.390625 93.644531 38.390625 100.746094 C 38.390625 103.140625 39.070312 105.554688 40.503906 107.707031 C 51.09375 123.582031 82.5625 171.796875 82.5625 171.796875 L 82.5625 247.460938 L 34.023438 268.402344 C 29.972656 270.148438 27.351562 274.136719 27.351562 278.550781 L 27.351562 303.941406 C 27.351562 308.0625 30.070312 309.972656 33.792969 309.972656 C 41.957031 309.972656 51.054688 304.023438 53.648438 294.457031 L 54.957031 289.636719 L 103.234375 270.304688 C 107.425781 268.625 110.175781 264.5625 110.175781 260.039062 L 110.175781 227.0625 C 110.175781 224.019531 112.664062 221.53125 115.703125 221.53125 C 118.738281 221.53125 121.226562 224.019531 121.226562 227.0625 L 121.226562 260.066406 C 121.226562 269.109375 115.722656 277.234375 107.339844 280.59375 L 72.949219 294.367188 C 68.757812 296.042969 66.007812 300.109375 66.007812 304.632812 L 66.007812 333.1875 C 66.007812 336.246094 68.34375 337.609375 71.644531 337.609375 C 79.007812 337.609375 89.652344 331.367188 92.382812 320.445312 L 93.617188 315.5 L 134.167969 298.675781 C 143.046875 294.992188 148.835938 286.316406 148.835938 276.703125 L 148.835938 171.804688 Z M 148.8125 171.804688 " fill-opacity="1" fill-rule="nonzero"/></g><path fill="#000000" d="M 46.667969 232.601562 C 42.097656 232.601562 38.386719 228.886719 38.386719 224.3125 L 38.386719 180.097656 C 38.386719 175.523438 42.097656 171.808594 46.667969 171.808594 C 51.238281 171.808594 54.949219 175.523438 54.949219 180.097656 L 54.949219 224.3125 C 54.949219 228.886719 51.238281 232.601562 46.667969 232.601562 Z M 46.667969 232.601562 " fill-opacity="1" fill-rule="nonzero"/><path fill="#000000" d="M 173.660156 309.984375 C 169.089844 309.984375 165.378906 306.269531 165.378906 301.695312 L 165.378906 246.425781 C 165.378906 241.851562 169.089844 238.136719 173.660156 238.136719 C 178.230469 238.136719 181.9375 241.851562 181.9375 246.425781 L 181.9375 301.695312 C 181.9375 306.269531 178.230469 309.984375 173.660156 309.984375 Z M 173.660156 309.984375 " fill-opacity="1" fill-rule="nonzero"/><path fill="#000000" d="M 201.269531 204.964844 C 196.695312 204.964844 192.988281 201.25 192.988281 196.675781 L 192.988281 152.460938 C 192.988281 147.886719 196.695312 144.171875 201.269531 144.171875 C 205.839844 144.171875 209.546875 147.886719 209.546875 152.460938 L 209.546875 196.675781 C 209.546875 201.25 205.839844 204.964844 201.269531 204.964844 Z M 201.269531 204.964844 " fill-opacity="1" fill-rule="nonzero"/><path fill="#000000" d="M 317.21875 199.441406 C 312.644531 199.441406 308.9375 195.726562 308.9375 191.152344 L 308.9375 146.9375 C 308.9375 142.363281 312.644531 138.648438 317.21875 138.648438 C 321.789062 138.648438 325.496094 142.363281 325.496094 146.9375 L 325.496094 191.152344 C 325.496094 195.726562 321.789062 199.441406 317.21875 199.441406 Z M 317.21875 199.441406 " fill-opacity="1" fill-rule="nonzero"/><path fill="#000000" d="M 262.003906 88.898438 C 248.28125 88.898438 237.15625 77.765625 237.15625 64.027344 L 237.15625 52.972656 C 237.15625 39.234375 248.28125 28.101562 262.003906 28.101562 C 275.730469 28.101562 286.851562 39.234375 286.851562 52.972656 L 286.851562 64.027344 C 286.851562 77.765625 275.730469 88.898438 262.003906 88.898438 Z M 262.003906 88.898438 " fill-opacity="1" fill-rule="nonzero"/><path fill="#000000" d="M 112.921875 133.113281 C 99.199219 133.113281 88.074219 121.980469 88.074219 108.242188 L 88.074219 97.1875 C 88.074219 83.449219 99.199219 72.316406 112.921875 72.316406 C 126.644531 72.316406 137.769531 83.449219 137.769531 97.1875 L 137.769531 108.242188 C 137.769531 121.980469 126.644531 133.113281 112.921875 133.113281 Z M 112.921875 133.113281 " fill-opacity="1" fill-rule="nonzero"/></svg>